<?xml version="1.0" encoding="UTF-8"?>
<svg xmlns="http://www.w3.org/2000/svg" xmlns:xlink="http://www.w3.org/1999/xlink" width="610" height="648" fill="none" version="1.1" viewBox="0 0 610 648">
  <defs>
    <clipPath id="clipPath162992">
      <path d="m0 0h797v842h-797z"></path>
    </clipPath>
    <clipPath id="clipPath163002">
      <path d="m0 0h598v631h-598z"></path>
    </clipPath>
    <clipPath id="clipPath163012">
      <path d="m0 0h598v630.26h-598z" clip-rule="evenodd"></path>
    </clipPath>
    <clipPath id="clipPath163394">
      <path d="m31.513 130.55h9.7541v9.7541h-9.7541z" clip-rule="evenodd"></path>
    </clipPath>
    <clipPath id="clipPath163406">
      <path d="m31.513 151.56h9.7541v7.5031h-9.7541z" clip-rule="evenodd"></path>
    </clipPath>
    <clipPath id="clipPath163418">
      <path d="m31.513 0h40.517v89.287h-40.517z" clip-rule="evenodd"></path>
    </clipPath>
    <clipPath id="clipPath163430">
      <path d="m0 0h598v630.26h-598z" clip-rule="evenodd"></path>
    </clipPath>
  </defs>
  <g fill="white">
    <mask>
      <path d="M178 120H316V224H178V120Z"></path>
    </mask>
    <mask>
      <path d="M178 223H316V343H178V223Z"></path>
    </mask>
    <mask>
      <path d="M178 342H316V467H178V342Z"></path>
    </mask>
  </g>
  <rect x="162" y="46" width="428.72" height="556" fill="#414375"></rect>
  <rect x="178" y="62" width="396.72" height="524" fill="#fff"></rect>
  <path d="m602.2 18c2.422-.5625 4.658-1.5938 6.801-3-2.143-1.3125-4.379-2.25-6.801-3-2.423-.75-4.379-2.625-5.124-5.1562-.559-2.4375-1.584-4.6875-2.982-6.8438-1.304 2.1562-2.236 4.4062-2.981 6.8438-.746 2.4375-2.609 4.4062-5.124 5.1562-2.423.5625-4.845 1.5938-6.988 3 2.143 1.3125 4.379 2.25 6.988 3 2.422.75 4.378 2.625 5.124 5.1563.559 2.4375 1.584 4.6875 2.981 6.8437 1.305-2.1562 2.236-4.4062 2.982-6.8437.652-2.5313 2.515-4.5938 5.124-5.1563z" fill="#f7c689"></path>
  <path d="m606.03 40.322c1.933 0 3.5-1.567 3.5-3.5s-1.567-3.5-3.5-3.5-3.5 1.567-3.5 3.5 1.567 3.5 3.5 3.5z" fill="#f7c689"></path>
  <g transform="matrix(.66594 0 0 -.66594 178.24 622.72)">
    <path d="m208.25 842v-786.86" fill="none" stroke="#d0d0d0" stroke-miterlimit="10" stroke-width=".96556"></path>
    <g clip-path="url(#clipPath162992)">
      <g transform="scale(1.3328 1.3344)">
        <g clip-path="url(#clipPath163002)">
          <g transform="matrix(1,0,0,-1,0,631)">
            <g clip-path="url(#clipPath163012)">
              <g transform="scale(.75031)">
                <path d="m0 88h595v1h-595z" fill="#d0d0d0"></path>
                <path d="m0 0h595v88h-595z" fill="#fff"></path>
                <g fill="#d0d0d0">
                  <path d="m0 234h208v1h-208z"></path>
                  <path d="m0 543h208v1h-208z"></path>
                  <path d="m209 257h386v1h-386z"></path>
                  <path d="m209 561h386v1h-386z"></path>
                </g>
                <g font-family="Arial">
                  <g font-weight="900">
                    <text transform="translate(122,58)" fill="#000000" font-size="28px" xml:space="preserve">
                      <tspan x="0 18.675781 42 65.324219 87.103516 110.42773" y="0">JOHAN </tspan>
                    </text>
                    <text transform="translate(241.77 58)" fill="#000000" font-size="28px" xml:space="preserve">
                      <tspan x="0 23.324219 46.648438 66.869141 93.296875 115.07617" y="0">GUZMAN</tspan>
                    </text>
                    <text transform="translate(42,157)" fill="#0e9fc1" font-size="12px" xml:space="preserve">
                      <tspan x="0 9.3339844 19.330078 29.326172 37.177734 46.294922 55.628906" y="0">CONTACT</tspan>
                    </text>
                  </g>
                  <text transform="translate(62,185)" fill="#000000" font-size="10px" xml:space="preserve">
                    <tspan x="0 3.3300781 8.8916016 14.453125 20.014648 23.344727 26.123047 31.68457 37.246094 42.807617 46.137695 51.699219 57.260742 62.822266" y="0">(555) 123-4567</tspan>
                  </text>
                  <text transform="translate(62,210)" fill="#000000" font-size="10px" xml:space="preserve">
                    <tspan x="0 5.5615234 11.123047 16.123047 24.453125 30.014648 35.576172 38.354492 40.576172 46.137695 51.699219 57.260742 62.822266 68.383789 78.535156 84.09668 92.426758 97.988281 100.20996 102.43164 105.20996 110.20996 115.77148" y="0">guzman.johann@email.com</tspan>
                  </text>
                  <text transform="translate(42,263)" fill="#0e9fc1" font-size="12px" font-weight="900" xml:space="preserve">
                    <tspan x="0 8.6660156 18.662109 23.332031 31.335938 39.339844" y="0">SKILLS</tspan>
                  </text>
                </g>
                <path d="m46 280.5c0 .41422-.14645.76776-.43934 1.0606-.2929.29288-.64645.43933-1.0607.43936-.41422-3e-5-.76777-.14648-1.0607-.43936-.29289-.29288-.43934-.64642-.43934-1.0606s.14645-.76779.43934-1.0607c.29289-.29288.64645-.4393 1.0607-.4393.41421 0 .76776.14642 1.0607.4393.29289.29291.43934.64648.43934 1.0607z" fill="#000"></path>
                <text transform="translate(56,284)" fill="#000000" font-family="Arial" font-size="10px" xml:space="preserve">
                  <tspan x="0 6.6699219 8.8916016 14.453125 20.014648 25.576172 28.90625 31.12793 36.689453 39.467773 42.246094 49.467773 55.029297 60.59082 66.152344 68.374023 73.935547 79.49707 82.275391 87.836914 93.398438" y="0">Blueprint Reading and</tspan>
                </text>
                <text transform="translate(56,299)" fill="#000000" font-family="Arial" font-size="10px" xml:space="preserve">
                  <tspan x="0 2.7783203 8.3398438 11.118164 16.679688 20.009766 25.571289 28.901367 34.462891 37.241211 42.802734 45.581055 47.802734 53.364258" y="0">Interpretation</tspan>
                </text>
                <path d="m46 310.5c0 .41422-.14645.76776-.43934 1.0606-.2929.29288-.64645.43933-1.0607.43936-.41422-3e-5-.76777-.14648-1.0607-.43936-.29289-.29288-.43934-.64642-.43934-1.0606s.14645-.76779.43934-1.0607c.29289-.29288.64645-.4393 1.0607-.4393.41421 0 .76776.14642 1.0607.4393.29289.29291.43934.64648.43934 1.0607z" fill="#000"></path>
                <text transform="translate(56,314)" fill="#000000" font-family="Arial" font-size="10px" xml:space="preserve">
                  <tspan x="0 7.2216797 12.783203 18.344727 23.344727 26.674805 32.236328 35.014648 40.576172 43.354492 50.024414 55.585938 61.147461 64.477539 66.699219 72.260742 77.822266 80.600586 86.162109 91.723633" y="0">Concrete Pouring and</tspan>
                </text>
                <text transform="translate(56,329)" fill="#000000" font-family="Arial" font-size="10px" xml:space="preserve">
                  <tspan x="0 6.1083984 8.3300781 13.891602 16.113281 21.113281 26.674805 28.896484 34.458008" y="0">Finishing</tspan>
                </text>
                <path d="m46 340.5c0 .41418-.14645.76773-.43934 1.0606-.2929.29288-.64645.43933-1.0607.43936-.41422-3e-5-.76777-.14648-1.0607-.43936-.29289-.29291-.43934-.64646-.43934-1.0606 0-.41422.14645-.76779.43934-1.0607.29289-.29288.64645-.43933 1.0607-.43933.41421 0 .76776.14645 1.0607.43933.29289.29288.43934.64645.43934 1.0607z" fill="#000"></path>
                <text transform="translate(56,344)" fill="#000000" font-family="Arial" font-size="10px" xml:space="preserve">
                  <tspan x="0 6.1083984 9.4384766 15 23.330078 25.551758 31.113281 36.674805 39.453125 45.014648 50.576172 56.137695 58.916016 66.137695 69.467773 74.467773 81.689453 87.250977 89.472656" y="0">Framing and Drywall</tspan>
                </text>
                <text transform="translate(56,359)" fill="#000000" font-family="Arial" font-size="10px" xml:space="preserve">
                  <tspan x="0 2.7783203 8.3398438 13.339844 16.118164 21.679688 23.901367 26.123047 31.68457 34.462891 36.68457 42.246094" y="0">Installation</tspan>
                </text>
                <path d="m46 370.5c0 .41418-.14645.76773-.43934 1.0606-.2929.29288-.64645.43933-1.0607.43936-.41422-3e-5-.76777-.14648-1.0607-.43936-.29289-.29291-.43934-.64646-.43934-1.0606 0-.41425.14645-.76782.43934-1.0607.29289-.29288.64645-.4393 1.0607-.4393.41421 0 .76776.14642 1.0607.4393.29289.29288.43934.64645.43934 1.0607z" fill="#000"></path>
                <text transform="translate(56,374)" fill="#000000" font-family="Arial" font-size="10px" xml:space="preserve">
                  <tspan x="0 7.2216797 12.783203 18.344727 23.344727 28.344727 31.123047 37.792969 43.354492 48.916016 51.137695 56.699219 65.029297 70.59082 76.152344 78.930664 81.708984 89.487305 95.048828 100.61035 103.94043 109.50195 112.28027 114.50195 120.06348" y="0">Heavy Equipment Operation</tspan>
                </text>
                <text transform="translate(56,389)" fill="#000000" font-family="Arial" font-size="10px" xml:space="preserve">
                  <tspan x="0 3.3300781 9.4384766 15 18.330078 23.330078 25.551758 27.773438 30.551758 33.330078 38.330078 41.108398 43.886719 50.556641 56.118164 61.118164 66.118164 71.679688 77.241211 82.802734 87.802734" y="0">(Forklifts, Backhoes)</tspan>
                </text>
                <path d="m46 400.5c0 .41422-.14645.76776-.43934 1.0607-.2929.29288-.64645.43933-1.0607.43933-.41422 0-.76777-.14645-1.0607-.43933-.29289-.29291-.43934-.64645-.43934-1.0607s.14645-.76779.43934-1.0607c.29289-.29288.64645-.43933 1.0607-.43933.41421 0 .76776.14645 1.0607.43933.29289.29288.43934.64645.43934 1.0607z" fill="#000"></path>
                <text transform="translate(56,404)" fill="#000000" font-family="Arial" font-size="10px" xml:space="preserve">
                  <tspan x="0 6.6699219 12.231445 15.009766 20.571289 23.349609 28.349609 31.12793 37.797852 41.12793 46.689453 49.467773 55.029297 60.029297 65.59082 67.8125 72.8125 75.59082 81.152344 86.713867 92.275391 95.053711 102.83203 109.50195 116.72363" y="0">Safety Protocols and OSHA</tspan>
                </text>
                <text transform="translate(56,419)" fill="#000000" font-family="Arial" font-size="10px" xml:space="preserve">
                  <tspan x="0 7.2216797 12.783203 21.113281 26.674805 28.896484 31.118164 36.679688 42.241211 47.241211" y="0">Compliance</tspan>
                </text>
                <path d="m46 430.5c0 .41418-.14645.76773-.43934 1.0606-.2929.29288-.64645.43936-1.0607.43939-.41422-3e-5-.76777-.14651-1.0607-.43939-.29289-.29288-.43934-.64643-.43934-1.0606 0-.41422.14645-.76779.43934-1.0607.29289-.29288.64645-.43933 1.0607-.43933.41421 0 .76776.14645 1.0607.43933.29289.29288.43934.64645.43934 1.0607z" fill="#000"></path>
                <text transform="translate(56,434)" fill="#000000" font-family="Arial" font-size="10px" xml:space="preserve">
                  <tspan x="0 6.6699219 8.8916016 11.669922 17.231445 20.009766 26.679688 30.009766 35.571289 41.132812 46.694336 50.024414 55.585938 58.364258 60.585938 66.147461 71.708984 74.487305 80.048828 85.610352" y="0">Site Preparation and</tspan>
                </text>
                <text transform="translate(56,449)" fill="#000000" font-family="Arial" font-size="10px" xml:space="preserve">
                  <tspan x="0 7.2216797 12.783203 21.113281 26.674805 28.896484 31.118164 33.896484 36.118164 41.679688" y="0">Demolition</tspan>
                </text>
                <path d="m46 460.5c0 .41422-.14645.76776-.43934 1.0606-.2929.29288-.64645.43933-1.0607.43936-.41422-3e-5-.76777-.14648-1.0607-.43936-.29289-.29288-.43934-.64642-.43934-1.0606s.14645-.76779.43934-1.0607c.29289-.29288.64645-.4393 1.0607-.4393.41421 0 .76776.14642 1.0607.4393.29289.29291.43934.64648.43934 1.0607z" fill="#000"></path>
                <text transform="translate(56,464)" fill="#000000" font-family="Arial" font-size="10px" xml:space="preserve">
                  <tspan x="0 5 10.561523 16.123047 24.453125 27.231445 34.453125 40.014648 42.236328 44.458008 50.019531 55.581055 61.142578 64.472656 70.03418 72.8125 75.03418 80.595703" y="0">Team Collaboration</tspan>
                </text>
                <path d="m46 475.5c0 .41418-.14645.76773-.43934 1.0606-.2929.29291-.64645.43936-1.0607.43939-.41422-3e-5-.76777-.14648-1.0607-.43939-.29289-.29288-.43934-.64643-.43934-1.0606 0-.41425.14645-.76782.43934-1.0607.29289-.29288.64645-.4393 1.0607-.4393.41421 0 .76776.14642 1.0607.4393.29289.29288.43934.64645.43934 1.0607z" fill="#000"></path>
                <text transform="translate(56,479)" fill="#000000" font-family="Arial" font-size="10px" xml:space="preserve">
                  <tspan x="0 5.7373047 7.9589844 16.289062 21.850586 24.628906 32.958984 38.520508 44.082031 49.643555 55.205078 60.766602 69.09668 74.658203 80.219727 82.998047 85.776367 91.337891 96.899414" y="0">Time Management and</tspan>
                </text>
                <text transform="translate(56,494)" fill="#000000" font-family="Arial" font-size="10px" xml:space="preserve">
                  <tspan x="0 6.6699219 9.2675781 12.045898 14.267578 19.267578 21.489258 27.050781 32.612305 37.612305" y="0">Efficiency</tspan>
                </text>
                <path d="m46 505.5c0 .41422-.14645.76776-.43934 1.0606-.2929.29291-.64645.43936-1.0607.43936-.41422 0-.76777-.14645-1.0607-.43936-.29289-.29288-.43934-.64642-.43934-1.0606s.14645-.76779.43934-1.0607c.29289-.29288.64645-.43933 1.0607-.43933.41421 0 .76776.14645 1.0607.43933.29289.29288.43934.64645.43934 1.0607z" fill="#000"></path>
                <g font-family="Arial">
                  <text transform="translate(56,509)" fill="#000000" font-size="10px" xml:space="preserve">
                    <tspan x="0 6.6699219 12.231445 19.453125 25.014648 28.344727 31.123047 36.123047 41.68457 47.246094 49.467773 54.467773 57.246094 60.576172 67.797852 71.12793 73.349609 75.571289 77.792969 82.792969 85.571289 88.349609 95.019531 100.58105 107.80273 112.80273" y="0">Power Tools (Drills, Saws,</tspan>
                  </text>
                  <text transform="translate(56,524)" fill="#000000" font-size="10px" xml:space="preserve">
                    <tspan x="0 7.7783203 11.108398 13.330078 18.891602 24.453125 30.014648 33.344727 38.344727" y="0">Grinders)</tspan>
                  </text>
                  <text transform="translate(42,572)" fill="#0e9fc1" font-size="12px" font-weight="900" xml:space="preserve">
                    <tspan x="0 9.3339844 18 27.228516 35.894531 40.564453 48.568359 53.238281 62.572266 71.080078 79.746094 84.416016 94.412109 104.4082" y="0">CERTIFICATIONS</tspan>
                  </text>
                </g>
                <path d="m46 589.5c0 .41418-.14645.7677-.43934 1.0606-.2929.29291-.64645.43933-1.0607.43939-.41422-6e-5-.76777-.14648-1.0607-.43939-.29289-.29291-.43934-.64643-.43934-1.0606 0-.41425.14645-.76776.43934-1.0607.29289-.29291.64645-.43933 1.0607-.43933.41421 0 .76776.14642 1.0607.43933.29289.29291.43934.64642.43934 1.0607z" fill="#000"></path>
                <g fill="#000000" font-family="Arial" font-size="10px">
                  <text transform="translate(56,593)" font-weight="bold" xml:space="preserve">
                    <tspan x="0 7.2216797 13.891602 21.113281 23.891602 29.453125 35.561523 41.669922 44.448242 50.556641 53.334961 57.226562 62.788086 66.118164 68.896484 76.118164 78.896484 85.004883 87.783203 95.004883 100.56641 104.45801 107.78809 110.56641 113.89648 116.6748 122.23633" y="0">CPR and First Aid Certified</tspan>
                  </text>
                  <g>
                    <text transform="translate(184.34 593)" xml:space="preserve">
                      <tspan x="0" y="0">,</tspan>
                    </text>
                    <text transform="translate(56,608)" xml:space="preserve">
                      <tspan x="0 6.6699219 15 20.561523 23.891602 26.113281 31.113281 36.674805 42.236328 45.014648 52.236328 57.797852 63.359375 66.137695 73.359375 76.689453 82.250977 87.250977 92.250977 95.029297 97.807617 104.47754 110.03906 113.36914 115.59082" y="0">American Red Cross, April</tspan>
                    </text>
                    <text transform="translate(56,623)" xml:space="preserve">
                      <tspan x="0 5.5615234 11.123047 16.68457" y="0">2020</tspan>
                    </text>
                  </g>
                </g>
                <path d="m46 634.5c0 .41425-.14645.76776-.43934 1.0607-.2929.29291-.64645.43933-1.0607.43933-.41422 0-.76777-.14642-1.0607-.43933-.29289-.29291-.43934-.64642-.43934-1.0607s.14645-.76776.43934-1.0607c.29289-.29291.64645-.43933 1.0607-.43933.41421 0 .76776.14642 1.0607.43933.29289.29291.43934.64642.43934 1.0607z" fill="#000"></path>
                <g fill="#000000" font-family="Arial" font-size="10px">
                  <g font-weight="bold">
                    <text transform="translate(56,638)" xml:space="preserve">
                      <tspan x="0 7.7783203 14.448242 21.669922 28.891602 31.669922 37.231445 42.792969 46.123047 53.344727 59.453125 65.561523" y="0">OSHA 30-Hour</tspan>
                    </text>
                    <text transform="translate(56,653)" xml:space="preserve">
                      <tspan x="0 7.2216797 13.330078 19.438477 25 28.330078 32.22168 38.330078 43.891602 47.22168 50 56.108398 62.216797 64.995117 71.665039 77.226562 80.556641 86.118164 89.448242" y="0">Construction Safety</tspan>
                    </text>
                    <text transform="translate(56,668)" xml:space="preserve">
                      <tspan x="0 7.2216797 12.783203 16.674805 20.004883 22.783203 26.113281 28.891602 34.453125 40.014648 43.344727 46.123047 52.231445" y="0">Certification</tspan>
                    </text>
                  </g>
                  <text transform="translate(114.33 668)" xml:space="preserve">
                    <tspan x="0 2.7783203 5.5566406 13.886719 19.448242 22.77832 27.77832 33.339844 36.118164 41.679688 47.241211 52.802734" y="0">, March 2019</tspan>
                  </text>
                </g>
                <path d="m46 679.5c0 .41418-.14645.7677-.43934 1.0606-.2929.29291-.64645.43933-1.0607.43939-.41422-6e-5-.76777-.14648-1.0607-.43939-.29289-.29291-.43934-.64643-.43934-1.0606 0-.41425.14645-.76776.43934-1.0607.29289-.29291.64645-.43933 1.0607-.43933.41421 0 .76776.14642 1.0607.43933.29289.29291.43934.64642.43934 1.0607z" fill="#000"></path>
                <g fill="#000000" font-family="Arial" font-size="10px">
                  <text transform="translate(56,683)" font-weight="bold" xml:space="preserve">
                    <tspan x="0 6.1083984 12.216797 16.108398 21.669922 24.448242 27.226562 30.556641 33.886719 36.665039 44.443359 50.551758 56.113281 60.004883 65.566406 68.896484 75.004883" y="0">Forklift Operator</tspan>
                  </text>
                  <text transform="translate(56,698)" font-weight="bold" xml:space="preserve">
                    <tspan x="0 7.2216797 12.783203 16.674805 20.004883 22.783203 26.113281 28.891602 34.453125 40.014648 43.344727 46.123047 52.231445" y="0">Certification</tspan>
                  </text>
                  <text transform="translate(114.33 698)" xml:space="preserve">
                    <tspan x="0 2.7783203 5.5566406 12.77832 18.339844 21.118164 23.339844 28.901367 34.462891 40.024414 42.246094 45.024414 51.694336 57.255859 60.03418 65.595703 68.374023" y="0">, National Safety</tspan>
                  </text>
                  <text transform="translate(56,713)" xml:space="preserve">
                    <tspan x="0 7.2216797 12.783203 18.344727 23.90625 28.90625 31.12793 33.349609 36.12793 38.90625 43.90625 49.467773 51.689453 56.689453 59.467773 65.029297 70.59082 76.152344" y="0">Council, July 2018</tspan>
                  </text>
                </g>
                <text transform="translate(229,127)" fill="#0e9fc1" font-family="Arial" font-size="12px" font-weight="900" xml:space="preserve">
                  <tspan x="0 8.6660156 17.794922 27.791016 35.794922 44.460938 53.126953 61.792969 66.462891 76.458984 86.337891 95.671875 103.67578 107.67773 116.34375 126.33984 137.66602 148.99219 158.32617 167.14453" y="0">PROFESSIONAL SUMMARY</tspan>
                </text>
                <g fill="#000000" font-family="Arial" font-size="10px">
                  <text transform="translate(229,148)" xml:space="preserve">
                    <tspan x="0 7.2216797 12.783203 15.004883 17.226562 22.788086 28.349609 30.571289 36.132812 38.911133 44.472656 50.03418 55.595703 58.374023 63.374023 68.935547 71.713867 77.275391 80.053711 85.053711 88.383789 93.383789 98.945312 104.50684 109.50684 114.50684 116.72852 122.29004 127.85156 132.85156 135.62988 137.85156 143.41309 148.97461 154.53613 157.31445 162.31445 167.87598 173.4375 178.4375 181.21582 184.5459 190.10742 195.10742 197.88574 200.10742 205.66895 211.23047 214.00879 221.23047 226.79199 230.12207 235.12207 240.68359 244.01367 246.79199 254.01367 256.23535 259.01367 264.5752 267.35352 272.91504 275.69336 280.69336 286.25488 291.81641 295.14648 300.14648 302.9248 308.48633" y="0">Reliable and safety-conscious lead construction worker with 9 years of</tspan>
                  </text>
                  <text transform="translate(229,163)" xml:space="preserve">
                    <tspan x="0 5.5615234 10.561523 16.123047 21.68457 25.014648 27.236328 32.797852 38.359375 43.359375 48.920898 51.699219 53.920898 59.482422 62.260742 65.59082 71.152344 76.152344 78.374023 83.935547 89.49707 95.058594 97.836914 100.05859 105.62012 107.8418 110.62012 113.39844 118.39844 123.95996 132.29004 140.62012 146.18164 149.51172 154.51172 156.7334 162.29492 164.5166 167.29492 170.07324 175.63477 181.19629 186.75781 189.53613 191.75781 197.31934 202.88086 208.44238 213.44238 216.2207 219.55078 221.77246 227.33398 229.55566 232.33398 237.33398 242.89551 248.45703 253.45703 256.23535 259.56543 265.12695 270.12695 272.90527 275.12695 280.68848 286.25 289.02832 291.80664 298.47656 303.47656 305.69824 307.91992 310.1416 315.70312" y="0">experience in residential, commercial, and industrial construction. Skilled</tspan>
                  </text>
                  <text transform="translate(229,178)" xml:space="preserve">
                    <tspan x="0 2.2216797 7.7832031 10.561523 16.123047 21.68457 27.246094 30.576172 36.137695 38.916016 41.137695 46.699219 52.260742 55.039062 60.600586 66.162109 71.723633 76.723633 81.723633 84.501953 92.832031 98.393555 103.39355 108.95508 111.17676 116.73828 122.2998 125.62988 129.8877 132.66602 135.44434 138.77441 144.33594 149.89746 155.45898 157.68066 163.24219 168.80371 171.58203 177.14355 179.36523 184.92676 190.48828 196.0498 199.37988 201.60156 207.16309 209.94141 214.94141 217.71973 220.49805 226.05957 231.62109 237.18262 239.96094 245.52246 251.08398 254.41406 257.19238 262.75391 266.08398 274.41406 276.63574 282.19727 287.75879 290.53711 296.09863 298.87695 306.09863 308.32031 313.88184" y="0">in operating heavy machinery, reading blueprints, and performing a wide</tspan>
                  </text>
                  <text transform="translate(229,193)" xml:space="preserve">
                    <tspan x="0 3.3300781 8.8916016 14.453125 20.014648 25.576172 28.354492 33.916016 36.694336 39.472656 44.472656 50.03418 55.595703 60.595703 63.374023 66.704102 72.265625 77.265625 80.043945 82.265625 87.827148 93.388672 96.166992 98.945312 104.50684 109.50684 114.50684 119.50684 122.28516 125.06348 127.28516 132.84668 137.84668 140.06836 145.62988 151.19141 153.41309 158.97461 164.53613 167.31445 170.09277 173.42285 178.98438 187.31445 189.53613 195.09766 200.65918 203.4375 206.21582 211.21582 216.77734 222.33887 227.33887 230.66895 236.23047 239.00879 244.57031 247.34863 252.91016 258.47168 264.0332 267.36328 269.58496 275.14648 280.70801 283.48633 286.26465 291.82617 297.3877 302.94922 305.72754 310.72754 312.94922 315.72754" y="0">range of construction tasks, including framing, concrete pouring, and site</tspan>
                  </text>
                  <text transform="translate(229,208)" xml:space="preserve">
                    <tspan x="0 5.5615234 8.8916016 14.453125 20.014648 25.576172 28.90625 34.467773 37.246094 39.467773 45.029297 50.59082 53.369141 56.147461 62.817383 66.147461 71.708984 76.708984 82.270508 87.832031 90.610352 96.171875 101.7334 103.95508 106.17676 108.39844 111.17676 116.17676 118.95508 121.7334 127.29492 130.07324 135.07324 140.63477 148.96484 154.52637 156.74805 162.30957 165.08789 170.64941 173.42773 178.98926 182.31934 187.88086 190.10254 195.66406 200.66406 203.44238 208.44238 211.2207 216.78223 222.34375 225.12207 227.90039 230.12207 238.45215 244.01367 246.79199 252.35352 257.91504 263.47656 266.25488 273.47656 275.69824 278.47656 284.03809 286.25977" y="0">preparation. Proven ability to complete projects on time and within</tspan>
                  </text>
                  <text transform="translate(229,223)" xml:space="preserve">
                    <tspan x="0 5.5615234 11.123047 16.68457 22.246094 27.807617 30.585938 33.364258 40.585938 46.147461 48.369141 50.59082 56.152344 58.930664 67.260742 72.822266 75.043945 80.605469 83.383789 88.945312 91.166992 96.728516 98.950195 104.51172 110.07324 112.85156 118.41309 120.63477 126.19629 131.75781 134.53613 139.53613 145.09766 147.87598 153.4375 156.21582 161.21582 163.99414 168.99414 171.77246 177.33398 182.89551 188.45703 194.01855 197.34863 202.91016 207.91016 210.68848 213.4668 220.13672 225.69824 231.25977 236.25977 238.48145 244.04297 249.60449 252.38281 255.16113 260.72266 263.50098 269.0625 272.39258 274.61426 280.17578 285.7373 288.51562 293.51562 296.29395 299.62402 305.18555 310.74707" y="0">budget while maintaining high safety standards. Seeking to bring strong</tspan>
                  </text>
                  <text transform="translate(229,238)" xml:space="preserve">
                    <tspan x="0 7.2216797 12.783203 16.113281 21.113281 23.891602 29.453125 32.231445 37.792969 40.014648 45.014648 47.792969 53.354492 58.916016 64.477539 67.255859 72.817383 77.817383 83.378906 88.94043 92.270508 95.048828 97.270508 102.27051 107.83203 110.61035 113.38867 118.9502 121.72852 127.29004 130.06836 135.62988 140.62988 146.19141 151.75293 160.08301 162.30469 167.30469 170.08301 175.08301 180.64453 186.20605 191.20605 193.98438 197.31445 202.87598 207.87598 210.6543 212.87598 218.4375 223.99902 226.77734 229.55566 235.11719 240.67871 249.00879" y="0">work ethic and expertise to a dynamic construction team.</tspan>
                  </text>
                </g>
                <text transform="translate(229,286)" fill="#0e9fc1" font-family="Arial" font-size="12px" font-weight="900" xml:space="preserve">
                  <tspan x="0 11.794922 21.791016 31.125 41.121094 45.123047 53.789062 63.123047 71.789062 80.455078 89.789062 94.458984 103.125 113.12109 122.45508" y="0">WORK EXPERIENCE</tspan>
                </text>
                <g fill="#000000" font-size="10px">
                  <text transform="translate(229,307)" font-family="Arial" font-weight="900" xml:space="preserve">
                    <tspan x="0 6.6699219 13.891602 21.669922 29.448242 32.783203 40.561523 48.891602 57.22168 64.443359 71.665039 79.272461 87.602539 95.380859 102.60254 106.49414 114.82422 123.1543 126.48926 136.31836 144.64844 152.42676 160.75684 167.97852" y="0">LEAD CONSTRUCTION WORKER</tspan>
                  </text>
                  <text transform="translate(417.52 307)" font-family="Arial" font-style="italic" xml:space="preserve">
                    <tspan x="0 8.3300781 13.891602 18.891602 21.669922 27.231445 32.792969 38.354492" y="0">May 2022</tspan>
                  </text>
                  <text transform="translate(464.2 307)" font-family="'Times New Roman'" xml:space="preserve">
                    <tspan x="0" y="0">‐</tspan>
                  </text>
                  <g font-family="Arial">
                    <text transform="translate(470.3 307)" font-style="italic" xml:space="preserve">
                      <tspan x="0 5 10.561523 16.123047 18.901367 24.462891 30.024414 35.585938" y="0">Jan 2025</tspan>
                    </text>
                    <text transform="translate(229,322)" font-style="italic" xml:space="preserve">
                      <tspan x="0 6.6699219 12.231445 20.561523 28.891602 31.113281 33.891602 36.669922 43.891602 49.453125 55.014648 60.014648 62.792969 66.123047 71.68457 76.68457 79.462891 81.68457 87.246094 92.807617 95.585938 102.80762 108.36914" y="0">Summit Construction Co.</tspan>
                    </text>
                    <text transform="translate(340.14 322)" xml:space="preserve">
                      <tspan x="0 2.7783203" y="0">, </tspan>
                    </text>
                    <text transform="translate(345.69 322)" font-style="italic" xml:space="preserve">
                      <tspan x="0 7.2216797 12.783203 18.344727 23.344727 28.90625" y="0">Denver</tspan>
                    </text>
                    <text transform="translate(377.92 322)" xml:space="preserve">
                      <tspan x="0 2.7783203" y="0">, </tspan>
                    </text>
                    <text transform="translate(383.47 322)" font-style="italic" xml:space="preserve">
                      <tspan x="0 7.2216797" y="0">CO</tspan>
                    </text>
                  </g>
                </g>
                <path d="m233 333.5c-2e-5.41418-.14647.76773-.43936 1.0606-.29289.29291-.64644.43936-1.0606.43939-.41423-3e-5-.76779-.14648-1.0607-.43939-.2929-.29288-.43934-.64643-.43932-1.0606-2e-5-.41422.14642-.76779.43932-1.0607.29289-.29288.64645-.43933 1.0607-.43933.4142 0 .76775.14645 1.0606.43933s.43934.64645.43936 1.0607z" fill="#000"></path>
                <text transform="translate(243,337)" fill="#000000" font-family="Arial" font-size="10px" xml:space="preserve">
                  <tspan x="0 7.2216797 12.783203 18.344727 23.90625 28.90625 34.467773 40.029297 42.807617 48.369141 51.699219 57.260742 59.482422 65.043945 70.043945 72.822266 75.600586 80.600586 86.162109 94.492188 100.05371 102.27539 107.83691 110.61523 112.83691 118.39844 123.95996 126.73828 129.5166 131.73828 140.06836 145.62988 148.4082 153.96973 158.96973 161.74805 167.30957 172.87109 181.7627 184.54102 190.10254 195.10254 197.88086 200.10254 208.43262 213.99414 216.21582 221.77734 230.10742 235.66895 241.23047 244.00879 246.23047 251.79199 257.35352 260.13184 268.46191 274.02344 277.35352" y="0">Reduced project completion time by 15% by implementing more</tspan>
                </text>
                <text transform="translate(243,352)" fill="#000000" font-family="Arial" font-size="10px" xml:space="preserve">
                  <tspan x="0 5.5615234 8.1591797 10.9375 13.15918 18.15918 20.380859 25.942383 31.503906 34.282227 37.060547 42.060547 44.282227 47.060547 52.62207 55.400391 60.961914 64.291992 69.853516 75.415039 80.976562 84.306641 89.868164 92.646484 94.868164 100.42969 105.99121 108.76953 111.54785 117.10938 122.10938 127.6709 133.23242 135.4541 141.01562 146.57715 152.13867 157.13867" y="0">efficient site preparation techniques.</tspan>
                </text>
                <path d="m233 363.5c-2e-5.41422-.14647.76776-.43936 1.0606-.29289.29291-.64644.43936-1.0606.43936-.41423 0-.76779-.14645-1.0607-.43936-.2929-.29288-.43934-.64642-.43932-1.0606-2e-5-.41422.14642-.76779.43932-1.0607.29289-.29288.64645-.43933 1.0607-.43933.4142 0 .76775.14645 1.0606.43933s.43934.64645.43936 1.0607z" fill="#000"></path>
                <text transform="translate(243,367)" fill="#000000" font-family="Arial" font-size="10px" xml:space="preserve">
                  <tspan x="0 6.6699219 11.669922 17.231445 19.453125 25.014648 30.014648 35.576172 41.137695 43.916016 48.916016 54.477539 57.807617 63.369141 66.147461 71.708984 77.270508 80.600586 85.600586 87.822266 90.600586 96.162109 98.94043 104.50195 109.50195 114.50195 116.72363 122.28516 127.84668 133.4082 136.18652 141.18652 143.96484 149.52637 154.52637 160.08789 163.41797 166.19629 171.75781 174.53613 177.31445 182.87598 186.20605 191.76758 197.3291 200.65918 205.65918 211.2207 216.78223 220.1123 222.89062 228.45215 234.01367 237.34375 239.56543 245.12695 250.68848 253.4668 259.02832 264.02832 266.80664 272.36816 277.92969 280.70801 286.26953 289.59961 294.59961 296.82129 302.38281" y="0">Achieved zero on-site accidents over a three-year period by enforcing</tspan>
                </text>
                <text transform="translate(243,382)" fill="#000000" font-family="Arial" font-size="10px" xml:space="preserve">
                  <tspan x="0 5 7.7783203 11.108398 13.330078 18.330078 21.108398 23.886719 28.886719 34.448242 37.226562 42.788086 45.566406 50.566406 53.344727 58.90625 62.236328 67.797852 70.576172 76.137695 81.137695 86.699219 88.920898 93.920898" y="0">strict safety protocols.</tspan>
                </text>
                <path d="m233 393.5c-2e-5.41418-.14647.76773-.43936 1.0606s-.64644.43936-1.0606.43939c-.41423-3e-5-.76779-.14651-1.0607-.43939-.2929-.29288-.43934-.64643-.43932-1.0606-2e-5-.41422.14642-.76779.43932-1.0607.29289-.29288.64645-.4393 1.0607-.4393.4142 0 .76775.14642 1.0606.4393.29289.29291.43934.64648.43936 1.0607z" fill="#000"></path>
                <g fill="#000000" font-size="10px">
                  <g font-family="Arial">
                    <text transform="translate(243,397)" xml:space="preserve">
                      <tspan x="0 6.6699219 8.8916016 14.453125 19.453125 25.014648 30.576172 33.354492 38.916016 41.694336 46.694336 52.255859 57.255859 60.03418 63.364258 68.925781 71.147461 76.708984 79.487305 81.708984 87.270508 90.048828 95.048828 100.61035 108.94043 114.50195 116.72363 122.28516 125.06348 127.28516 132.84668 138.4082 141.18652 146.74805 149.52637 155.08789 160.64941 168.97949 171.75781 176.75781 182.31934 190.64941 198.97949 204.54102 207.87109 212.87109 215.09277 220.6543 222.87598 225.6543 231.21582 234.5459 240.10742 242.3291 247.89062 252.89062 255.66895 258.44727 261.22559 268.44727 274.00879 276.78711 284.00879 289.57031 295.13184 300.13184" y="0">Played a key role in completing a $5M commercial project two weeks</tspan>
                    </text>
                    <text transform="translate(243,412)" xml:space="preserve">
                      <tspan x="0 5.5615234 11.123047 16.68457 22.246094 27.807617 30.585938 36.147461 38.925781 41.704102 46.704102 51.704102 57.265625 62.827148 68.388672 73.950195 76.171875 81.733398 84.511719 87.290039 92.851562 98.413086 101.74316 107.30469 109.52637 115.08789 120.64941 123.42773 126.75781 132.31934 137.31934 142.88086 148.44238 154.00391 156.22559 159.00391 161.22559 166.78711 172.34863 175.12695 177.90527 181.23535 186.79688 195.12695 197.90527 206.23535 211.79688 217.3584 222.91992 228.48145 234.04297 242.37305 247.93457 253.49609 256.27441" y="0">ahead of schedule, earning recognition from management.</tspan>
                    </text>
                    <text transform="translate(229,437)" font-weight="900" xml:space="preserve">
                      <tspan x="0 7.7783203 16.108398 24.438477 31.660156 38.881836 46.489258 54.819336 62.597656 69.819336 73.710938 82.041016 90.371094 93.706055 103.53516 111.86523 119.64355 127.97363 135.19531" y="0">CONSTRUCTION WORKER</tspan>
                    </text>
                    <text transform="translate(384.73 437)" font-style="italic" xml:space="preserve">
                      <tspan x="0 6.6699219 12.231445 15.561523 18.339844 23.901367 29.462891 35.024414" y="0">Apr 2016</tspan>
                    </text>
                  </g>
                  <text transform="translate(428.09 437)" font-family="'Times New Roman'" xml:space="preserve">
                    <tspan x="0" y="0">‐</tspan>
                  </text>
                  <g font-family="Arial">
                    <text transform="translate(434.19 437)" font-style="italic" xml:space="preserve">
                      <tspan x="0 7.2216797 12.783203 17.783203 20.561523 26.123047 31.68457 37.246094" y="0">Dec 2024</tspan>
                    </text>
                    <text transform="translate(229,452)" font-style="italic" xml:space="preserve">
                      <tspan x="0 7.2216797 12.783203 16.113281 18.334961 23.334961 28.896484 34.458008 37.236328 43.90625 49.467773 51.689453 53.911133 59.472656 65.03418 68.364258" y="0">Horizon Builders</tspan>
                    </text>
                    <text transform="translate(302.36 452)" xml:space="preserve">
                      <tspan x="0 2.7783203" y="0">, </tspan>
                    </text>
                    <text transform="translate(307.91 452)" font-style="italic" xml:space="preserve">
                      <tspan x="0 6.6699219 12.231445 17.792969 20.014648 25.576172 31.137695" y="0">Boulder</tspan>
                    </text>
                    <text transform="translate(342.36 452)" xml:space="preserve">
                      <tspan x="0 2.7783203" y="0">, </tspan>
                    </text>
                    <text transform="translate(347.91 452)" font-style="italic" xml:space="preserve">
                      <tspan x="0 7.2216797" y="0">CO</tspan>
                    </text>
                  </g>
                </g>
                <path d="m233 463.5c-2e-5.41422-.14647.76776-.43936 1.0606-.29289.29291-.64644.43936-1.0606.43936-.41423 0-.76779-.14645-1.0607-.43936-.2929-.29288-.43934-.64642-.43932-1.0606-2e-5-.41422.14642-.76779.43932-1.0607.29289-.29288.64645-.43933 1.0607-.43933.4142 0 .76775.14645 1.0606.43933s.43934.64645.43936 1.0607z" fill="#000"></path>
                <text transform="translate(243,467)" fill="#000000" font-family="Arial" font-size="10px" xml:space="preserve">
                  <tspan x="0 2.7783203 8.3398438 13.339844 16.669922 22.231445 27.792969 32.792969 38.354492 43.916016 46.694336 49.472656 55.03418 60.595703 68.925781 71.704102 77.265625 80.595703 86.157227 91.71875 97.280273 102.28027 105.05859 107.28027 112.28027 114.50195 117.28027 122.28027 125.05859 130.62012 135.62012 138.39844 143.95996 149.52148 158.41309 161.19141 166.75293 171.75293 174.53125 176.75293 182.31445 185.09277 188.42285 193.98438 199.5459 205.10742 210.10742 212.3291 217.89062 223.45215 226.23047 231.79199 234.57031 242.90039 248.46191 251.79199 257.35352 260.13184 265.69336 269.02344 274.58496 280.14648 285.70801 287.92969 292.92969 298.49121" y="0">Increased team productivity by 10% by introducing a more organized</tspan>
                </text>
                <text transform="translate(243,482)" fill="#000000" font-family="Arial" font-size="10px" xml:space="preserve">
                  <tspan x="0 8.3300781 13.891602 16.669922 22.231445 25.561523 27.783203 33.344727 35.566406 38.344727 43.90625 49.467773 51.689453 53.911133 58.911133 64.472656 67.802734 72.802734 75.581055 80.581055 85.581055 90.581055 93.359375 98.920898 107.25098" y="0">material delivery system.</tspan>
                </text>
                <path d="m233 493.5c-2e-5.41418-.14647.76773-.43936 1.0606s-.64644.43936-1.0606.43939c-.41423-3e-5-.76779-.14651-1.0607-.43939-.2929-.29288-.43934-.64643-.43932-1.0606-2e-5-.41422.14642-.76779.43932-1.0607.29289-.29288.64645-.4393 1.0607-.4393.4142 0 .76775.14642 1.0606.4393.29289.29291.43934.64648.43936 1.0607z" fill="#000"></path>
                <text transform="translate(243,497)" fill="#000000" font-family="Arial" font-size="10px" xml:space="preserve">
                  <tspan x="0 7.2216797 12.783203 21.113281 26.674805 28.896484 34.458008 37.236328 42.797852 48.359375 51.137695 56.699219 62.260742 68.100586 70.878906 74.208984 79.770508 84.770508 86.992188 92.553711 98.115234 103.67676 106.45508 108.67676 114.23828 116.45996 119.23828 124.7998 128.12988 133.69141 135.91309 141.47461 146.47461 149.25293 154.25293 157.03125 159.80957 164.80957 170.37109 175.93262 180.93262 183.1543 188.1543 190.93262 196.49414 202.05566 204.83398 207.05566 212.05566 214.83398 218.16406 223.72559 228.72559 234.28711 236.50879 241.50879 243.73047 249.29199 254.85352 257.63184 263.19336 268.75488 273.75488 275.97656 278.75488 280.97656 285.97656" y="0">Completed 30+ residential projects, consistently receiving positive</tspan>
                </text>
                <text transform="translate(243,512)" fill="#000000" font-family="Arial" font-size="10px" xml:space="preserve">
                  <tspan x="0 2.7783203 8.3398438 13.901367 19.462891 25.024414 30.585938 35.585938 40.585938 43.364258 46.142578 49.472656 55.03418 63.364258 66.142578 71.142578 73.364258 75.585938 81.147461 86.708984 89.487305 94.487305 97.265625 100.04395 105.60547 108.93555 111.71387 117.27539 119.49707 125.05859 130.62012 133.9502 139.51172 145.07324 150.63477 152.85645 155.07812 157.85645 162.85645 165.63477 172.85645 178.41797 181.74805 186.74805" y="0">feedback from clients for high-quality work.</tspan>
                </text>
                <path d="m233 523.5c-2e-5.41418-.14647.76776-.43936 1.0607s-.64644.43933-1.0606.43933c-.41423 0-.76779-.14642-1.0607-.43933-.2929-.29291-.43934-.64649-.43932-1.0607-2e-5-.41425.14642-.76776.43932-1.0607.29289-.29291.64645-.43933 1.0607-.43933.4142 0 .76775.14642 1.0606.43933s.43934.64642.43936 1.0607z" fill="#000"></path>
                <g font-family="Arial">
                  <text transform="translate(243,527)" fill="#000000" font-size="10px" xml:space="preserve">
                    <tspan x="0 6.6699219 12.231445 17.231445 22.231445 27.792969 32.792969 37.792969 40.571289 46.132812 48.354492 50.576172 55.576172 58.354492 60.576172 66.137695 71.137695 73.916016 79.477539 81.699219 83.920898 89.482422 95.043945 97.822266 103.38379 108.94531 114.50684 117.83691 123.39844 128.39844 131.72852 137.29004 139.8877 142.66602 144.8877 149.8877 152.10938 157.6709 163.23242 166.01074 168.78906 176.01074 178.23242 183.79395 189.35547 194.91699 202.13867 207.13867 209.91699 215.47852 221.04004 226.60156 229.37988 232.70996 238.27148 243.83301 246.61133 248.83301 254.39453 259.95605 262.73438 267.73438 272.73438 277.73438 280.5127 286.07422 294.4043" y="0">Successfully installed energy-efficient windows and roofing systems</tspan>
                  </text>
                  <text transform="translate(243,542)" fill="#000000" font-size="10px" xml:space="preserve">
                    <tspan x="0 5.5615234 11.123047 13.901367 19.462891 25.024414 30.864258 33.642578 39.204102 44.204102 49.765625 53.095703 55.874023 59.204102 61.425781 66.987305 72.548828 78.110352 80.332031 85.332031 88.110352 93.671875 99.233398 107.56348 113.125 115.90332 121.46484 124.79492 130.35645 132.57812 138.13965 143.13965 145.91797 150.91797" y="0">on 10+ eco-friendly home projects.</tspan>
                  </text>
                  <text transform="translate(229,590)" fill="#0e9fc1" font-size="12px" font-weight="900" xml:space="preserve">
                    <tspan x="0 8.6660156 18 27.996094 37.330078 45.837891 54.503906 59.173828 69.169922" y="0">EDUCATION</tspan>
                  </text>
                </g>
                <g fill="#000000" font-family="Arial" font-size="10px">
                  <text transform="translate(229,611)" font-weight="900" xml:space="preserve">
                    <tspan x="0 8.3300781 12.22168 20.551758 28.881836 32.216797 39.438477 47.216797 55.546875 63.876953 72.207031 78.876953 82.211914 89.990234 93.881836 101.10352 107.60254 115.93262 125.37109" y="0">HIGH SCHOOL DIPLOMA</tspan>
                  </text>
                  <text transform="translate(364.91 611)" font-style="italic" xml:space="preserve">
                    <tspan x="0 5 10.561523 16.123047 18.901367 24.462891 30.024414 35.585938" y="0">Jun 2014</tspan>
                  </text>
                  <text transform="translate(229,626)" font-style="italic" xml:space="preserve">
                    <tspan x="0 7.2216797 12.783203 18.344727 21.123047 24.453125 30.014648 32.236328 35.014648 42.236328 44.458008 50.019531 55.581055 58.359375 65.029297 70.029297 75.59082 81.152344 86.713867" y="0">Central High School</tspan>
                  </text>
                  <text transform="translate(317.92 626)" xml:space="preserve">
                    <tspan x="0 2.7783203" y="0">, </tspan>
                  </text>
                  <text transform="translate(323.47 626)" font-style="italic" xml:space="preserve">
                    <tspan x="0 7.2216797 12.783203 18.344727 23.344727 28.90625 31.68457 34.462891 37.241211 44.462891" y="0">Denver, CO</tspan>
                  </text>
                </g>
              </g>
            </g>
            <g clip-path="url(#clipPath163394)">
              <g transform="matrix(.019051 0 0 .019051 31.513 130.55)">
                <path d="m493.4 24.6-104-24c-11.3-2.6-22.9 3.3-27.5 13.9l-48 112c-4.2 9.8-1.4 21.3 6.9 28l60.6 49.6c-36 76.7-98.9 140.5-177.2 177.2l-49.6-60.6c-6.8-8.3-18.2-11.1-28-6.9l-112 48c-10.7 4.7-16.6 16.3-14 27.6l24 104c2.5 10.8 12.1 18.6 23.4 18.6 256.1 0 464-207.5 464-464 0-11.2-7.7-20.9-18.6-23.4z" fill="#000"></path>
              </g>
            </g>
            <g clip-path="url(#clipPath163406)">
              <g transform="matrix(.014655 0 0 .014655 32.639 151.56)">
                <path d="m502.3 190.8c3.9-3.1 9.7-.19999 9.7 4.7v204.5c0 26.5-21.5 48-48 48h-416c-26.5 0-48-21.5-48-48v-204.4c0-5 5.7-7.8 9.7-4.7 22.4 17.4 52.1 39.5 154.1 113.6 21.1 15.4 56.7 47.8 92.2 47.6 35.7.29998 72-32.8 92.3-47.6 102-74.1 131.6-96.3 154-113.7zm-246.3 129.2c23.2.39999 56.6-29.2 73.4-41.4 132.7-96.3 142.8-104.7 173.4-128.7 5.8-4.5 9.2-11.5 9.2-18.9v-19c0-26.5-21.5-48-48-48h-416c-26.5-1.5e-5-48 21.5-48 48v19c0 7.4 3.4 14.3 9.2 18.9 30.6 23.9 40.7 32.4 173.4 128.7 16.8 12.2 50.2 41.8 73.4 41.4z" fill="#000"></path>
              </g>
            </g>
            <g clip-path="url(#clipPath163418)">
              <g transform="matrix(.75031 0 0 .75031 31.513 0)">
                <path d="m.151 0h53.849v119l-26.064-7.825c-.57357-.17209-1.1472-.17243-1.721-.00099l-26.215 7.826z" fill="#0e9fc1"></path>
              </g>
            </g>
            <g clip-path="url(#clipPath163430)">
              <g transform="scale(.75031)" fill="#ffffff" font-family="Arial" font-size="21px" font-weight="900">
                <text transform="translate(62,56)" xml:space="preserve">
                  <tspan x="0" y="0">J</tspan>
                </text>
                <text transform="translate(60.25,77)" xml:space="preserve">
                  <tspan x="0" y="0">G</tspan>
                </text>
              </g>
            </g>
          </g>
        </g>
      </g>
    </g>
  </g>
</svg>
